<?xml version="1.0" encoding="utf-8"?>
<!-- Generator: Adobe Illustrator 24.0.3, SVG Export Plug-In . SVG Version: 6.00 Build 0)  -->
<svg version="1.1" id="Layer_1" xmlns="http://www.w3.org/2000/svg" xmlns:xlink="http://www.w3.org/1999/xlink" x="0px" y="0px"
	 viewBox="0 0 30 30" style="enable-background:new 0 0 30 30;" xml:space="preserve">
<style type="text/css">
	.st0{fill:none;}
	.st1{fill:#CCD2DE;}
</style>
<circle id="Ellipse_299" class="st0" cx="15" cy="15" r="15"/>
<path id="Path_910" class="st1" d="M15,11c1.1,0,2-0.9,2-2s-0.9-2-2-2s-2,0.9-2,2C13,10.1,13.9,11,15,11z M15,13c-1.1,0-2,0.9-2,2
	s0.9,2,2,2s2-0.9,2-2C17,13.9,16.1,13,15,13z M15,19c-1.1,0-2,0.9-2,2s0.9,2,2,2s2-0.9,2-2C17,19.9,16.1,19,15,19z"/>
</svg>
