<?xml version="1.0" encoding="utf-8"?>
<!-- Generator: Adobe Illustrator 24.0.3, SVG Export Plug-In . SVG Version: 6.00 Build 0)  -->
<svg version="1.1" id="Layer_1" xmlns="http://www.w3.org/2000/svg" xmlns:xlink="http://www.w3.org/1999/xlink" x="0px" y="0px"
	 viewBox="0 0 223 151" style="enable-background:new 0 0 223 151;" xml:space="preserve">
<style type="text/css">
	.st0{fill:#162D5A;}
	.st1{font-family:'Roboto-Regular';}
	.st2{font-size:14px;}
	.st3{font-size:10px;}
	.st4{fill:#687793;}
	.st5{fill:#DADCE0;}
	.st6{fill:#C5C2FD;}
	.st7{fill:none;stroke:#6C63FC;stroke-width:1.5;}
	.st8{fill:#FFFFFF;}
	.st9{fill:none;stroke:#687793;stroke-width:0.75;stroke-dasharray:2,2;}
	.st10{display:none;}
	.st11{display:inline;fill:none;}
	.st12{display:inline;fill:none;stroke:#C165DD;}
	.st13{fill:none;stroke:#C165DD;stroke-width:0.75;stroke-dasharray:2,2;}
	.st14{fill:#C165DD;}
</style>
<g id="Group_2178" transform="translate(-627 -1244)">
	<text transform="matrix(1 0 0 1 642.115 1260.4386)" class="st0 st1 st2">Existing scene changes</text>
	<text transform="matrix(1 0 0 1 743.099 1360.4386)" class="st0 st1 st3">New Transition Z</text>
	<text transform="matrix(1 0 0 1 640.7319 1386.4386)" class="st4 st1 st2">Apply new transitions here</text>
	<path id="Rectangle_1081" class="st5" d="M642.1,1311.4h43c1.7,0,3,1.3,3,3v22c0,1.7-1.3,3-3,3h-43c-1.7,0-3-1.3-3-3v-22
		C639.1,1312.8,640.4,1311.4,642.1,1311.4z"/>
	<path id="Rectangle_1080" class="st5" d="M693.1,1311.4h33c1.7,0,3,1.3,3,3v22c0,1.7-1.3,3-3,3h-33c-1.7,0-3-1.3-3-3v-22
		C690.1,1312.8,691.4,1311.4,693.1,1311.4z"/>
	<path id="Rectangle_1079" class="st5" d="M734.1,1311.4h58c1.7,0,3,1.3,3,3v22c0,1.7-1.3,3-3,3h-58c-1.7,0-3-1.3-3-3v-22
		C731.1,1312.8,732.4,1311.4,734.1,1311.4z"/>
	<g id="Screen_Shot_2020-02-24_at_10.45.37_PM" transform="translate(716 1317)">
		<path class="st6" d="M-1.9,3.4h46c1.7,0,3,1.3,3,3v13c0,1.7-1.3,3-3,3h-46c-1.7,0-3-1.3-3-3v-13C-4.9,4.8-3.6,3.4-1.9,3.4z"/>
		<path class="st7" d="M-1.9,4.2h46c1.2,0,2.2,1,2.2,2.2v13c0,1.2-1,2.2-2.2,2.2h-46c-1.2,0-2.2-1-2.2-2.2v-13
			C-4.2,5.2-3.1,4.2-1.9,4.2z"/>
	</g>
	<g id="Screen_Shot_2020-02-24_at_10.45.37_PM-2" transform="translate(664 1317)">
		<path class="st6" d="M-1.9,3.4h36c1.7,0,3,1.3,3,3v13c0,1.7-1.3,3-3,3h-36c-1.7,0-3-1.3-3-3v-13C-4.9,4.8-3.6,3.4-1.9,3.4z"/>
		<path class="st7" d="M-1.9,4.2h36c1.2,0,2.2,1,2.2,2.2v13c0,1.2-1,2.2-2.2,2.2h-36c-1.2,0-2.2-1-2.2-2.2v-13
			C-4.2,5.2-3.1,4.2-1.9,4.2z"/>
	</g>
	<circle id="Ellipse_299" class="st8" cx="719.1" cy="1329.4" r="3"/>
	<circle id="Ellipse_301" class="st8" cx="668.1" cy="1329.4" r="3"/>
	<path id="Path_1032" class="st9" d="M730.6,1371.4v-22.7"/>
	<path id="Path_1033" class="st9" d="M689.6,1371.4v-22.5"/>
	<path id="Polygon_48" class="st4" d="M730.6,1343.5l2.5,4h-5L730.6,1343.5z"/>
	<path id="Polygon_49" class="st4" d="M689.6,1343.5l2.5,4h-5L689.6,1343.5z"/>
	<text transform="matrix(1 0 0 1 743.099 1288.4386)" class="st0 st1 st3">Original Transition X &amp; Y</text>
	<g id="Ellipse_300" transform="translate(686 1298)" class="st10">
		<circle class="st11" cx="3.6" cy="11.9" r="8.5"/>
		<circle class="st12" cx="3.6" cy="11.9" r="8"/>
	</g>
	<g id="Ellipse_298" transform="translate(727 1298)" class="st10">
		<circle class="st11" cx="3.6" cy="11.9" r="8.5"/>
		<circle class="st12" cx="3.6" cy="11.9" r="8"/>
	</g>
	<path id="Path_1035" class="st13" d="M689.6,1269.5v22.7"/>
	<path id="Path_1034" class="st13" d="M730.6,1269.5v22.5"/>
	<path id="Polygon_51" class="st14" d="M689.6,1297.4l-2.5-4h5L689.6,1297.4z"/>
	<path id="Polygon_50" class="st14" d="M730.6,1297.4l-2.5-4h5L730.6,1297.4z"/>
</g>
</svg>
