<?xml version="1.0" encoding="utf-8"?>
<!-- Generator: Adobe Illustrator 24.0.3, SVG Export Plug-In . SVG Version: 6.00 Build 0)  -->
<svg version="1.1" id="Layer_1" xmlns="http://www.w3.org/2000/svg" xmlns:xlink="http://www.w3.org/1999/xlink" x="0px" y="0px"
	 viewBox="0 0 16 16" style="enable-background:new 0 0 16 16;" xml:space="preserve">
<style type="text/css">
	.st0{fill:#A94ACC;}
	.st1{fill:url(#Path_721-2_1_);}
	.st2{fill:url(#Path_722_1_);}
	.st3{fill:#D378F4;}
	.st4{fill:#FFFFFF;}
	.st5{fill:#4285F4;}
	.st6{fill:#FACD3A;}
	.st7{fill:#41B65D;}
</style>
<g id="Group_1934" transform="translate(-571.742 -172.734)">
	<path id="Path_720" class="st0" d="M576.4,176.9h-4.7l4.7,11.6h4.7l-2.2-5.5l-0.8-2.1l0,0L576.4,176.9z"/>
	<g transform="matrix(1, 0, 0, 1, 571.74, 172.73)">
		
			<linearGradient id="Path_721-2_1_" gradientUnits="userSpaceOnUse" x1="14.8011" y1="2.6344" x2="14.7734" y2="2.5528" gradientTransform="matrix(20.482 0 0 -24.706 -295.4852 79.0307)">
			<stop  offset="0.286" style="stop-color:#5E92CC"/>
			<stop  offset="0.547" style="stop-color:#598FC9"/>
			<stop  offset="0.825" style="stop-color:#4C86C3"/>
			<stop  offset="0.916" style="stop-color:#4783C0"/>
		</linearGradient>
		<path id="Path_721-2" class="st1" d="M4.9,15.7h4.6l-2.2-5.5L4.9,15.7z"/>
	</g>
	
		<linearGradient id="Path_722_1_" gradientUnits="userSpaceOnUse" x1="578.4468" y1="184.1227" x2="578.4116" y2="184.0351" gradientTransform="matrix(49.956 0 0 -70.635 -28315.1191 13187.5938)">
		<stop  offset="0.287" style="stop-color:#D378F4"/>
		<stop  offset="0.547" style="stop-color:#CF74EF"/>
		<stop  offset="0.825" style="stop-color:#C569E2"/>
		<stop  offset="0.916" style="stop-color:#C165DD"/>
	</linearGradient>
	<path id="Path_722" class="st2" d="M581.2,188.4l6.6-15.7h-4.5l-4.3,10.2l-2.3,5.5L581.2,188.4z"/>
	<circle id="Ellipse_269" class="st3" cx="583.2" cy="177.7" r="3.9"/>
	<g id="Group_1930" transform="translate(579.621 198.821)">
		
			<rect id="Rectangle_818" x="-5.9" y="-20.2" transform="matrix(0.9267 -0.3759 0.3759 0.9267 6.9342 -3.5494)" class="st4" width="0.5" height="1.4"/>
		
			<rect id="Rectangle_819" x="-4.9" y="-17.7" transform="matrix(0.9267 -0.3759 0.3759 0.9267 6.0577 -2.9774)" class="st4" width="0.5" height="1.4"/>
		
			<rect id="Rectangle_820" x="-3.8" y="-15.2" transform="matrix(0.9267 -0.3759 0.3759 0.9267 5.181 -2.4054)" class="st4" width="0.5" height="1.4"/>
	</g>
	<g id="Group_1933" transform="translate(608.27 181.281)">
		
			<image style="overflow:visible;opacity:0.5;enable-background:new    ;" width="92" height="93" id="Rectangle_821" xlink:href="B0F9CE06A756355F.png"  transform="matrix(7.231823e-02 0 0 7.231823e-02 -28.4097 -6.6474)">
		</image>
		<g id="Group_1932" transform="translate(1.964 0.944)">
			<g id="Group_1931">
				<path id="Path_723" class="st4" d="M-27.1-3.6c0,0-0.1,0-0.1,0c-0.5-0.1-0.9-0.6-0.8-1.1c0.1-0.5,0.6-0.9,1.1-0.8
					c0.5,0.1,0.9,0.6,0.8,1.1C-26.2-3.9-26.6-3.6-27.1-3.6z M-27.1-5c-0.3,0-0.5,0.2-0.5,0.5c0,0.3,0.2,0.5,0.5,0.5
					c0.3,0,0.5-0.2,0.5-0.5C-26.5-4.8-26.7-5-27.1-5C-27-5-27-5-27.1-5L-27.1-5z"/>
				<path id="Path_724" class="st5" d="M-24.2-4.5c0-1.6-1.3-2.8-2.9-2.8c0,0,0,0,0,0l0,0.8h0c1.1,0,2,0.9,2,2c0,0,0,0,0,0
					c0,0.3,0,0.5-0.1,0.7l0.8,0.3C-24.2-3.8-24.2-4.1-24.2-4.5C-24.2-4.5-24.2-4.5-24.2-4.5z"/>
				<path id="Path_725" class="st6" d="M-28.5-5.9c0.4-0.4,0.9-0.6,1.4-0.6l0-0.8c-1.6,0-2.8,1.3-2.8,2.9c0,0,0,0,0,0
					c0,0.8,0.3,1.5,0.9,2l0.6-0.6c-0.4-0.4-0.6-0.9-0.6-1.4c0,0,0,0,0,0C-29.1-5-28.9-5.5-28.5-5.9L-28.5-5.9z"/>
				<path id="Path_726" class="st7" d="M-25.2-3.8c-0.3,0.8-1,1.3-1.9,1.3c0,0,0,0,0,0c-0.5,0-1-0.2-1.4-0.6l-0.6,0.6
					c0.5,0.5,1.3,0.8,2,0.8c0,0,0,0,0,0c1.2,0,2.2-0.7,2.6-1.8L-25.2-3.8z"/>
			</g>
		</g>
	</g>
</g>
</svg>
