<?xml version="1.0" encoding="utf-8"?>
<!-- Generator: Adobe Illustrator 24.2.0, SVG Export Plug-In . SVG Version: 6.00 Build 0)  -->
<svg version="1.1" id="Layer_1" xmlns="http://www.w3.org/2000/svg" xmlns:xlink="http://www.w3.org/1999/xlink" x="0px" y="0px"
	 viewBox="0 0 16 16" style="enable-background:new 0 0 16 16;" xml:space="preserve">
<style type="text/css">
	.st0{fill:#C165DD;}
</style>
<g id="Group_3510" transform="translate(-54.063 -56.454)">
	<path id="Path_1514" class="st0" d="M66.4,65.1v5.4H55.6V59.7h3.9c0-0.5,0.2-1.1,0.4-1.5h-4.3c-0.9,0-1.5,0.7-1.5,1.5v10.8
		c0,0.9,0.7,1.5,1.5,1.5h10.8c0.9,0,1.5-0.7,1.5-1.5v-3.9L66.4,65.1z M67.4,61.9c1.1-1.6,0.6-3.8-1.1-4.9c-1.6-1.1-3.8-0.6-4.9,1.1
		c-1.1,1.6-0.6,3.8,1.1,4.9c1.2,0.7,2.6,0.7,3.8,0l2.4,2.4l1.1-1.1L67.4,61.9z M64.5,62c-1.1,0-1.9-0.9-1.9-1.9
		c0-1.1,0.9-1.9,1.9-1.9c1.1,0,1.9,0.9,1.9,1.9v0C66.4,61.1,65.6,62,64.5,62L64.5,62z"/>
	<rect id="Rectangle_1607" x="56.8" y="67.4" class="st0" width="8.5" height="1.5"/>
	<rect id="Rectangle_1608" x="56.8" y="64.3" class="st0" width="4.7" height="1.5"/>
</g>
</svg>
