<?xml version="1.0" encoding="utf-8"?>
<!-- Generator: Adobe Illustrator 24.2.0, SVG Export Plug-In . SVG Version: 6.00 Build 0)  -->
<svg version="1.1" id="Layer_1" xmlns="http://www.w3.org/2000/svg" xmlns:xlink="http://www.w3.org/1999/xlink" x="0px" y="0px"
	 viewBox="0 0 45 45" style="enable-background:new 0 0 45 45;" xml:space="preserve">
<style type="text/css">
	.st0{fill:none;}
	.st1{fill:#C165DD;}
</style>
<g id="Group_3522" transform="translate(-1129 -802)">
	<g id="Path_1520_1_" transform="translate(1129 802)">
		<path class="st0" d="M22.5,0C34.9,0,45,10.1,45,22.5S34.9,45,22.5,45S0,34.9,0,22.5S10.1,0,22.5,0z"/>
		<path class="st1" d="M22.5,2c-2.8,0-5.5,0.5-8,1.6C12.1,4.6,9.9,6.1,8,8s-3.4,4.1-4.4,6.5C2.5,17,2,19.7,2,22.5s0.5,5.5,1.6,8
			c1,2.4,2.5,4.6,4.4,6.5s4.1,3.4,6.5,4.4c2.5,1.1,5.2,1.6,8,1.6s5.5-0.5,8-1.6c2.4-1,4.6-2.5,6.5-4.4s3.4-4.1,4.4-6.5
			c1.1-2.5,1.6-5.2,1.6-8s-0.5-5.5-1.6-8c-1-2.4-2.5-4.6-4.4-6.5s-4.1-3.4-6.5-4.4C28,2.5,25.3,2,22.5,2 M22.5,0
			C34.9,0,45,10.1,45,22.5S34.9,45,22.5,45S0,34.9,0,22.5S10.1,0,22.5,0z"/>
	</g>
	<path id="Path_1522_1_" class="st1" d="M1154.1,819H1144v1.7h10.1V819z M1154.1,822.4H1144v1.7h10.1V822.4z M1144,827.4h6.7v-1.7
		h-6.7L1144,827.4z M1155.8,819v6.9c-1.3-0.5-2.8,0.2-3.2,1.5s0.2,2.8,1.5,3.2c1.3,0.5,2.8-0.2,3.2-1.5c0.1-0.3,0.1-0.6,0.1-0.8
		v-7.6h2.5V819H1155.8z"/>
</g>
</svg>
