<?xml version="1.0" encoding="utf-8"?>
<!-- Generator: Adobe Illustrator 24.0.3, SVG Export Plug-In . SVG Version: 6.00 Build 0)  -->
<svg version="1.1" id="Layer_1" xmlns="http://www.w3.org/2000/svg" xmlns:xlink="http://www.w3.org/1999/xlink" x="0px" y="0px"
	 viewBox="0 0 12 12" style="enable-background:new 0 0 12 12;" xml:space="preserve">
<style type="text/css">
	.st0{fill:#BFC6D5;}
</style>
<path id="Path_982" class="st0" d="M11.6,9.5L6.7,4.7C7.2,3.4,6.9,2,5.9,1C4.9,0,3.3-0.3,2,0.3l2.3,2.3L2.7,4.2L0.3,1.9
	C-0.3,3.2,0,4.8,1,5.9c1,1,2.4,1.3,3.7,0.8l4.8,4.8c0.2,0.2,0.5,0.2,0.7,0c0,0,0,0,0,0l1.2-1.2C11.7,10.1,11.8,9.8,11.6,9.5
	C11.6,9.6,11.6,9.6,11.6,9.5z"/>
</svg>
