<?xml version="1.0" encoding="utf-8"?>
<!-- Generator: Adobe Illustrator 24.0.3, SVG Export Plug-In . SVG Version: 6.00 Build 0)  -->
<svg version="1.1" id="Layer_1" xmlns="http://www.w3.org/2000/svg" xmlns:xlink="http://www.w3.org/1999/xlink" x="0px" y="0px"
	 viewBox="0 0 17.5 16" style="enable-background:new 0 0 17.5 16;" xml:space="preserve">
<style type="text/css">
	.st0{fill:#80868B;}
</style>
<path id="Path_464" class="st0" d="M3.18,4.69C1.42,4.69,0,6.11,0,7.87s1.42,3.18,3.18,3.18s3.18-1.42,3.18-3.18l0,0
	C6.36,6.11,4.94,4.69,3.18,4.69C3.18,4.69,3.18,4.69,3.18,4.69z M12.73,3.1c-2.64,0-4.77,2.14-4.77,4.77s2.14,4.77,4.77,4.77
	s4.77-2.14,4.77-4.77l0,0C17.5,5.23,15.36,3.1,12.73,3.1z M12.73,11.05c-1.76,0-3.18-1.42-3.18-3.18s1.42-3.18,3.18-3.18
	s3.18,1.42,3.18,3.18C15.91,9.63,14.49,11.05,12.73,11.05C12.73,11.05,12.73,11.05,12.73,11.05z"/>
</svg>
