<?xml version="1.0" encoding="utf-8"?>
<!-- Generator: Adobe Illustrator 24.0.3, SVG Export Plug-In . SVG Version: 6.00 Build 0)  -->
<svg version="1.1" id="Layer_1" xmlns="http://www.w3.org/2000/svg" xmlns:xlink="http://www.w3.org/1999/xlink" x="0px" y="0px"
	 viewBox="0 0 14 14" style="enable-background:new 0 0 14 14;" xml:space="preserve">
<style type="text/css">
	.st0{fill:#75DDDD;}
</style>
<path id="Path_858" class="st0" d="M7,1.7c1,0,1.8,0.8,1.8,1.8c0,1-0.8,1.8-1.8,1.8c-1,0-1.8-0.8-1.8-1.8c0,0,0,0,0,0
	C5.2,2.5,6,1.7,7,1.7C7,1.7,7,1.7,7,1.7 M7,9.5c2.6,0,5.3,1.3,5.3,1.8v1H1.7v-1C1.7,10.8,4.4,9.5,7,9.5 M7,0C5.1,0,3.5,1.6,3.5,3.5
	S5.1,7,7,7s3.5-1.6,3.5-3.5C10.5,1.6,8.9,0,7,0L7,0z M7,7.9c-2.3,0-7,1.2-7,3.5V14h14v-2.6C14,9,9.3,7.9,7,7.9L7,7.9z"/>
</svg>
