<?xml version="1.0" encoding="utf-8"?>
<!-- Generator: Adobe Illustrator 24.0.3, SVG Export Plug-In . SVG Version: 6.00 Build 0)  -->
<svg version="1.1" id="Layer_1" xmlns="http://www.w3.org/2000/svg" xmlns:xlink="http://www.w3.org/1999/xlink" x="0px" y="0px"
	 viewBox="0 0 16 16" style="enable-background:new 0 0 16 16;" xml:space="preserve">
<style type="text/css">
	.st0{fill:#FBBC04;}
</style>
<path id="Path_614" class="st0" d="M2.95,8.84c-0.47,0-0.84,0.38-0.84,0.84c0,0.47,0.38,0.84,0.84,0.84c0.47,0,0.84-0.38,0.84-0.84
	l0,0C3.79,9.22,3.41,8.84,2.95,8.84z M2.95,12.21c-0.47,0-0.84,0.38-0.84,0.84c0,0.47,0.38,0.84,0.84,0.84
	c0.47,0,0.84-0.38,0.84-0.84l0,0C3.79,12.59,3.41,12.21,2.95,12.21L2.95,12.21z M2.95,5.47c-0.47,0-0.84,0.38-0.84,0.84
	c0,0.47,0.38,0.84,0.84,0.84c0.47,0,0.84-0.38,0.84-0.84v0C3.79,5.85,3.41,5.48,2.95,5.47L2.95,5.47z M0.42,5.89
	C0.19,5.89,0,6.08,0,6.32s0.19,0.42,0.42,0.42c0.23,0,0.42-0.19,0.42-0.42C0.84,6.08,0.66,5.9,0.42,5.89
	C0.43,5.89,0.42,5.89,0.42,5.89L0.42,5.89z M2.95,2.11c-0.47,0-0.84,0.38-0.84,0.84c0,0.47,0.38,0.84,0.84,0.84
	c0.47,0,0.84-0.38,0.84-0.84v0C3.79,2.48,3.41,2.11,2.95,2.11z M15.58,6.74c0.23,0,0.42-0.19,0.42-0.42S15.81,5.9,15.58,5.9
	c-0.23,0-0.42,0.19-0.42,0.42C15.16,6.55,15.34,6.73,15.58,6.74C15.57,6.74,15.58,6.74,15.58,6.74z M9.68,3.79
	c0.47,0,0.84-0.38,0.84-0.84c0-0.47-0.38-0.84-0.84-0.84c-0.47,0-0.84,0.38-0.84,0.84v0C8.84,3.41,9.22,3.79,9.68,3.79z M9.68,0.84
	c0.23,0,0.42-0.19,0.42-0.42S9.92,0,9.68,0C9.45,0,9.26,0.19,9.26,0.42C9.26,0.65,9.45,0.84,9.68,0.84
	C9.68,0.84,9.68,0.84,9.68,0.84z M0.42,9.26C0.19,9.26,0,9.45,0,9.68s0.19,0.42,0.42,0.42c0.23,0,0.42-0.19,0.42-0.42
	C0.84,9.45,0.66,9.27,0.42,9.26C0.43,9.26,0.42,9.26,0.42,9.26z M6.32,15.16c-0.23,0-0.42,0.19-0.42,0.42S6.08,16,6.32,16
	c0.23,0,0.42-0.19,0.42-0.42C6.74,15.35,6.55,15.16,6.32,15.16C6.32,15.16,6.32,15.16,6.32,15.16z M6.32,0.84
	c0.23,0,0.42-0.19,0.42-0.42S6.55,0,6.32,0C6.08,0,5.89,0.19,5.89,0.42C5.89,0.65,6.08,0.84,6.32,0.84
	C6.31,0.84,6.31,0.84,6.32,0.84z M6.32,3.79c0.47,0,0.84-0.38,0.84-0.84c0-0.47-0.38-0.84-0.84-0.84c-0.47,0-0.84,0.38-0.84,0.84v0
	C5.48,3.41,5.85,3.79,6.32,3.79z M6.32,8.42c-0.7,0-1.26,0.57-1.26,1.26c0,0.7,0.57,1.26,1.26,1.26s1.26-0.57,1.26-1.26
	C7.58,8.99,7.02,8.42,6.32,8.42C6.32,8.42,6.32,8.42,6.32,8.42z M13.05,8.84c-0.47,0-0.84,0.38-0.84,0.84
	c0,0.47,0.38,0.84,0.84,0.84c0.47,0,0.84-0.38,0.84-0.84v0C13.89,9.22,13.52,8.84,13.05,8.84z M13.05,12.21
	c-0.47,0-0.84,0.38-0.84,0.84c0,0.47,0.38,0.84,0.84,0.84c0.47,0,0.84-0.38,0.84-0.84v0C13.89,12.59,13.52,12.21,13.05,12.21
	L13.05,12.21z M13.05,5.47c-0.47,0-0.84,0.38-0.84,0.84c0,0.47,0.38,0.84,0.84,0.84c0.47,0,0.84-0.38,0.84-0.84v0
	C13.89,5.85,13.52,5.48,13.05,5.47L13.05,5.47z M13.05,2.11c-0.47,0-0.84,0.38-0.84,0.84c0,0.47,0.38,0.84,0.84,0.84
	c0.47,0,0.84-0.38,0.84-0.84v0C13.89,2.48,13.52,2.11,13.05,2.11z M15.58,9.26c-0.23,0-0.42,0.19-0.42,0.42s0.19,0.42,0.42,0.42
	c0.23,0,0.42-0.19,0.42-0.42C16,9.45,15.82,9.27,15.58,9.26C15.58,9.26,15.58,9.26,15.58,9.26z M9.68,12.21
	c-0.47,0-0.84,0.38-0.84,0.84c0,0.47,0.38,0.84,0.84,0.84c0.47,0,0.84-0.38,0.84-0.84v0C10.52,12.59,10.15,12.21,9.68,12.21
	L9.68,12.21z M9.68,15.16c-0.23,0-0.42,0.19-0.42,0.42S9.45,16,9.68,16c0.23,0,0.42-0.19,0.42-0.42
	C10.11,15.35,9.92,15.16,9.68,15.16C9.69,15.16,9.69,15.16,9.68,15.16L9.68,15.16z M6.32,5.05c-0.7,0-1.26,0.57-1.26,1.26
	s0.57,1.26,1.26,1.26s1.26-0.57,1.26-1.26l0,0C7.58,5.62,7.02,5.05,6.32,5.05C6.32,5.05,6.32,5.05,6.32,5.05z M6.32,12.21
	c-0.47,0-0.84,0.38-0.84,0.84c0,0.47,0.38,0.84,0.84,0.84c0.47,0,0.84-0.38,0.84-0.84C7.16,12.59,6.78,12.21,6.32,12.21z M9.68,8.42
	c-0.7,0-1.26,0.57-1.26,1.26c0,0.7,0.57,1.26,1.26,1.26s1.26-0.57,1.26-1.26C10.95,8.99,10.39,8.42,9.68,8.42
	C9.69,8.42,9.69,8.42,9.68,8.42L9.68,8.42z M9.68,5.05c-0.7,0-1.26,0.57-1.26,1.26s0.57,1.26,1.26,1.26s1.26-0.57,1.26-1.26
	C10.95,5.62,10.39,5.05,9.68,5.05C9.69,5.05,9.69,5.05,9.68,5.05L9.68,5.05z"/>
</svg>
