<?xml version="1.0" encoding="utf-8"?>
<!-- Generator: Adobe Illustrator 24.0.3, SVG Export Plug-In . SVG Version: 6.00 Build 0)  -->
<svg version="1.1" id="Layer_1" xmlns="http://www.w3.org/2000/svg" xmlns:xlink="http://www.w3.org/1999/xlink" x="0px" y="0px"
	 viewBox="0 0 61 61" style="enable-background:new 0 0 61 61;" xml:space="preserve">
<style type="text/css">
	.st0{fill:#162D5A;}
</style>
<path id="Path_674" class="st0" d="M30.41,0C13.61,0,0,13.62,0,30.41s13.62,30.41,30.41,30.41c16.79,0,30.41-13.61,30.41-30.41
	C60.8,13.62,47.19,0.02,30.41,0z M57.53,29.78l-11.29,6.45l-0.02-14.21l0,0L46.2,8.36C53.13,13.32,57.33,21.25,57.53,29.78z
	 M17.48,23.14l13.09-7.48l12.55,7.26L43.14,38l-12.87,7.36l-12.77-7.38L17.48,23.14z M43.09,6.43l0.02,12.9l-12.54-7.25l0,0
	L19.4,5.62C27,2.23,35.74,2.53,43.09,6.43L43.09,6.43z M16.16,7.33l11.3,6.53l-12.3,7.03l0,0L3.42,27.6
	C4.3,19.24,9,11.75,16.16,7.33L16.16,7.33z M3.3,31.24l11.09-6.34l0.02,13.96l0,0l0.02,13.45C7.66,47.39,3.55,39.61,3.3,31.24
	L3.3,31.24z M17.53,54.28l-0.02-12.73l12.76,7.38l0,0l10.98,6.35C33.61,58.61,24.86,58.25,17.53,54.28z M44.51,53.58l-11.13-6.43
	l12.08-6.91l0,0l11.91-6.81C56.42,41.78,51.67,49.22,44.51,53.58L44.51,53.58z"/>
</svg>
