<?xml version="1.0" encoding="utf-8"?>
		<!-- Generator: Adobe Illustrator 24.0.3, SVG Export Plug-In . SVG Version: 6.00 Build 0)  -->
<svg version="1.1" id="Layer_1" xmlns="http://www.w3.org/2000/svg" xmlns:xlink="http://www.w3.org/1999/xlink" x="0px" y="0px"
	 viewBox="0 0 63 56" style="enable-background:new 0 0 63 56;" xml:space="preserve">
<style type="text/css">
	.st0{fill:#162D5A;}
</style>
<path id="Path_675" class="st0" d="M27.75,45.35c-1.8,0-3.26-1.46-3.27-3.27V25.5c0-1.8,1.46-3.26,3.26-3.26
	c0.67,0,1.32,0.21,1.87,0.59l11.85,8.29c1.48,1.03,1.84,3.07,0.8,4.55c-0.22,0.31-0.49,0.58-0.8,0.8l-11.85,8.29
	C29.08,45.14,28.42,45.35,27.75,45.35z M27.75,25.51l0.02,16.58l11.83-8.31L27.75,25.51z"/>
<path id="Path_676" class="st0" d="M55.69,11.71H38.32l6.22-6.7c0.62-0.66,0.58-1.7-0.09-2.31c-0.66-0.62-1.7-0.58-2.31,0.09l0,0
	l-8.3,8.92H29.8L19.98,0.55c-0.6-0.68-1.63-0.74-2.31-0.15c-0.68,0.6-0.74,1.63-0.15,2.31l7.92,9H6.65C2.98,11.72,0,14.69,0,18.36
	v30.87c0,3.67,2.98,6.64,6.65,6.65h49.04c3.67,0,6.65-2.98,6.65-6.65V18.36C62.34,14.69,59.36,11.72,55.69,11.71z M59.07,49.23
	c0,1.86-1.51,3.37-3.38,3.37H6.65c-1.86,0-3.37-1.51-3.38-3.37V18.36c0-1.86,1.51-3.37,3.38-3.38h49.05c1.86,0,3.37,1.51,3.38,3.38
	V49.23z"/>
</svg>
