<?xml version="1.0" encoding="utf-8"?>
<!-- Generator: Adobe Illustrator 24.2.0, SVG Export Plug-In . SVG Version: 6.00 Build 0)  -->
<svg version="1.1" id="Layer_1" xmlns="http://www.w3.org/2000/svg" xmlns:xlink="http://www.w3.org/1999/xlink" x="0px" y="0px"
	 viewBox="0 0 45 45" style="enable-background:new 0 0 45 45;" xml:space="preserve">
<style type="text/css">
	.st0{fill:#C165DD;}
	.st1{fill:#FFFFFF;}
</style>
<path id="Path_1520" class="st0" d="M22.5,0C34.9,0,45,10.1,45,22.5S34.9,45,22.5,45S0,34.9,0,22.5S10.1,0,22.5,0z"/>
<path id="Path_1522" class="st1" d="M25.1,17H15v1.7h10.1V17z M25.1,20.4H15V22h10.1V20.4z M15,25.4h6.7v-1.7H15L15,25.4z M26.8,17
	v6.9c-1.3-0.5-2.8,0.2-3.2,1.5c-0.5,1.3,0.2,2.8,1.5,3.2s2.8-0.2,3.2-1.5c0.1-0.3,0.1-0.6,0.1-0.8v-7.6H31V17L26.8,17z"/>
</svg>
