<?xml version="1.0" encoding="utf-8"?>
<!-- Generator: Adobe Illustrator 24.2.0, SVG Export Plug-In . SVG Version: 6.00 Build 0)  -->
<svg version="1.1" id="Layer_1" xmlns="http://www.w3.org/2000/svg" xmlns:xlink="http://www.w3.org/1999/xlink" x="0px" y="0px"
	 viewBox="0 0 14 14" style="enable-background:new 0 0 14 14;" xml:space="preserve">
<style type="text/css">
	.st0{fill:#C165DD;}
</style>
<path id="Path_1496" class="st0" d="M7.7,3.5H6.3v2.8H3.5v1.4h2.8v2.8h1.4V7.7h2.8V6.3H7.7V3.5z M7,0C3.1,0,0,3.1,0,7s3.1,7,7,7
	s7-3.1,7-7l0,0C14,3.1,10.9,0,7,0z M7,12.6c-3.1,0-5.6-2.5-5.6-5.6S3.9,1.4,7,1.4c3.1,0,5.6,2.5,5.6,5.6c0,0,0,0,0,0
	C12.6,10.1,10.1,12.6,7,12.6z"/>
</svg>
