<?xml version="1.0" encoding="utf-8"?>
<!-- Generator: Adobe Illustrator 24.0.3, SVG Export Plug-In . SVG Version: 6.00 Build 0)  -->
<svg version="1.1" id="Layer_1" xmlns="http://www.w3.org/2000/svg" xmlns:xlink="http://www.w3.org/1999/xlink" x="0px" y="0px"
	 viewBox="0 0 53 53" style="enable-background:new 0 0 53 53;" xml:space="preserve">
<style type="text/css">
	.st0{fill:#836EFF;}
	.st1{fill:#FFFFFF;}
</style>
<path id="Path_911" class="st0" d="M26.5,0c10.4,0,19.8,6.1,24.1,15.6C52.2,19,53,22.7,53,26.5C53,41.1,41.1,53,26.5,53
	S0,41.1,0,26.5S11.9,0,26.5,0z"/>
<path id="Path_912" class="st1" d="M36.6,27.4c0.1-0.4,0.1-0.9,0.1-1.3c0-0.4,0-0.9-0.1-1.3l2.8-2.2c0.2-0.2,0.3-0.6,0.2-0.8
	l-2.6-4.5c-0.2-0.3-0.5-0.4-0.8-0.3l-3.3,1.3c-0.7-0.5-1.4-1-2.2-1.3l-0.5-3.5c0-0.3-0.3-0.6-0.7-0.6h-5.3c-0.3,0-0.6,0.2-0.6,0.6
	L23,17c-0.8,0.3-1.5,0.8-2.2,1.3L17.5,17c-0.3-0.1-0.7,0-0.8,0.3l-2.6,4.6c-0.2,0.3-0.1,0.6,0.2,0.8l2.8,2.2c-0.2,0.9-0.2,1.7,0,2.6
	l-2.8,2.2c-0.2,0.2-0.3,0.6-0.2,0.8l2.6,4.5c0.2,0.3,0.5,0.4,0.8,0.3l3.3-1.3c0.7,0.5,1.4,1,2.2,1.3l0.5,3.5
	c0.1,0.3,0.3,0.6,0.7,0.6h5.3c0.3,0,0.6-0.2,0.6-0.6l0.5-3.5c0.8-0.3,1.5-0.8,2.2-1.3l3.3,1.3c0.3,0.1,0.7,0,0.8-0.3l2.6-4.6
	c0.2-0.3,0.1-0.6-0.2-0.8L36.6,27.4z M26.8,31.1c-2.7,0-4.9-2.2-4.9-4.9c0-2.7,2.2-4.9,4.9-4.9c2.7,0,4.9,2.2,4.9,4.9c0,0,0,0,0,0
	C31.7,28.9,29.5,31.1,26.8,31.1z"/>
</svg>
