<?xml version="1.0" encoding="utf-8"?>
<!-- Generator: Adobe Illustrator 24.2.0, SVG Export Plug-In . SVG Version: 6.00 Build 0)  -->
<svg version="1.1" id="Layer_1" xmlns="http://www.w3.org/2000/svg" xmlns:xlink="http://www.w3.org/1999/xlink" x="0px" y="0px"
	 viewBox="0 0 45 45" style="enable-background:new 0 0 45 45;" xml:space="preserve">
<style type="text/css">
	.st0{fill:#C165DD;}
	.st1{fill:#FFFFFF;}
</style>
<path id="Path_1777" class="st0" d="M22.5,0C34.9,0,45,10.1,45,22.5S34.9,45,22.5,45S0,34.9,0,22.5S10.1,0,22.5,0z"/>
<path id="Subtraction_3" class="st1" d="M23.8,31.6h-2v-3.2c-1.6-0.2-3.1-1-4.1-2.2c-0.5-0.6-1-1.3-1.3-2c-0.3-0.8-0.5-1.6-0.5-2.4
	h1.7c0,1.4,0.6,2.7,1.6,3.6c0.5,0.4,1,0.8,1.7,1c1.1,0.4,2.4,0.5,3.6,0.1c0.5,0.4,1.1,0.8,1.7,1c-0.7,0.4-1.5,0.7-2.3,0.8L23.8,31.6
	L23.8,31.6z M22.9,24.8c-1.6,0-2.9-1.3-2.9-2.9c0,0,0,0,0,0v-5.9c0-1.6,1.3-2.9,2.9-2.9c1.6,0,2.9,1.3,2.9,2.9v1.2
	c-2,1-3.3,3-3.3,5.2c0,0.9,0.2,1.7,0.6,2.5C23,24.8,23,24.8,22.9,24.8z"/>
<path id="Exclusion_1" class="st1" d="M28.5,27C26,27,24,25,24,22.5s2-4.5,4.5-4.5s4.5,2,4.5,4.5l0,0C33,25,31,27,28.5,27z
	 M26.7,20.7v0.8h1.6v3.4h0.8v-3.4h1.5v-0.8L26.7,20.7L26.7,20.7z"/>
</svg>
