<?xml version="1.0" encoding="utf-8"?>
<!-- Generator: Adobe Illustrator 24.0.3, SVG Export Plug-In . SVG Version: 6.00 Build 0)  -->
<svg version="1.1" id="Layer_1" xmlns="http://www.w3.org/2000/svg" xmlns:xlink="http://www.w3.org/1999/xlink" x="0px" y="0px"
	 viewBox="0 0 61 61" style="enable-background:new 0 0 61 61;" xml:space="preserve">
<style type="text/css">
	.st0{fill:#162D5A;}
</style>
<path id="Path_680" class="st0" d="M30.5,60C14.21,60,1,46.79,1,30.5C1,14.21,14.21,1,30.5,1C46.79,1,60,14.21,60,30.5
	C59.98,46.79,46.78,59.98,30.5,60z M30.5,4.18C15.96,4.18,4.18,15.96,4.18,30.5c0,14.54,11.79,26.32,26.32,26.32
	c14.54,0,26.32-11.79,26.32-26.32c0,0,0,0,0,0C56.81,15.97,45.03,4.19,30.5,4.18L30.5,4.18z"/>
<path id="Path_681" class="st0" d="M41.54,40.01c-0.25,0-0.5-0.06-0.72-0.17l-11.92-6.06V12.07c0-0.88,0.71-1.59,1.59-1.59
	c0.88,0,1.59,0.71,1.59,1.59v19.76l10.18,5.17c0.78,0.39,1.1,1.35,0.71,2.13C42.7,39.68,42.15,40.02,41.54,40.01L41.54,40.01z"/>
</svg>
