<?xml version="1.0" encoding="utf-8"?>
<!-- Generator: Adobe Illustrator 24.2.0, SVG Export Plug-In . SVG Version: 6.00 Build 0)  -->
<svg version="1.1" id="Layer_1" xmlns="http://www.w3.org/2000/svg" xmlns:xlink="http://www.w3.org/1999/xlink" x="0px" y="0px"
	 viewBox="0 0 45 45" style="enable-background:new 0 0 45 45;" xml:space="preserve">
<style type="text/css">
	.st0{fill:none;}
	.st1{fill:#C165DD;}
</style>
<g id="Path_1523">
	<path class="st0" d="M22.5,0C34.9,0,45,10.1,45,22.5S34.9,45,22.5,45S0,34.9,0,22.5S10.1,0,22.5,0z"/>
	<path class="st1" d="M22.5,2c-2.8,0-5.5,0.5-8,1.6C12.1,4.6,9.9,6.1,8,8s-3.4,4.1-4.4,6.5C2.5,17,2,19.7,2,22.5s0.5,5.5,1.6,8
		c1,2.4,2.5,4.6,4.4,6.5s4.1,3.4,6.5,4.4c2.5,1.1,5.2,1.6,8,1.6s5.5-0.5,8-1.6c2.4-1,4.6-2.5,6.5-4.4s3.4-4.1,4.4-6.5
		c1.1-2.5,1.6-5.2,1.6-8s-0.5-5.5-1.6-8c-1-2.4-2.5-4.6-4.4-6.5s-4.1-3.4-6.5-4.4C28,2.5,25.3,2,22.5,2 M22.5,0
		C34.9,0,45,10.1,45,22.5S34.9,45,22.5,45S0,34.9,0,22.5S10.1,0,22.5,0z"/>
</g>
<g id="Group_3524" transform="translate(-450 -830.999)">
	<path id="Subtraction_3" class="st1" d="M473.8,862.6h-2v-3.2c-1.6-0.2-3.1-1-4.1-2.2c-0.5-0.6-1-1.3-1.3-2
		c-0.3-0.8-0.5-1.6-0.5-2.4h1.7c0,1.4,0.6,2.7,1.6,3.6c0.5,0.4,1,0.8,1.7,1c1.1,0.4,2.4,0.5,3.6,0.1c0.5,0.4,1.1,0.8,1.7,1
		c-0.7,0.4-1.5,0.7-2.3,0.8L473.8,862.6L473.8,862.6z M472.9,855.8c-1.6,0-2.9-1.3-2.9-2.9c0,0,0,0,0,0v-5.9c0-1.6,1.3-2.9,2.9-2.9
		c1.6,0,2.9,1.3,2.9,2.9v1.2c-2,1-3.3,3-3.3,5.2c0,0.9,0.2,1.7,0.6,2.5C473,855.8,473,855.8,472.9,855.8z"/>
	<path id="Exclusion_1" class="st1" d="M478.5,858c-2.5,0-4.5-2-4.5-4.5s2-4.5,4.5-4.5s4.5,2,4.5,4.5l0,0C483,856,481,858,478.5,858
		z M476.7,851.7v0.8h1.6v3.4h0.8v-3.4h1.5v-0.8L476.7,851.7L476.7,851.7z"/>
</g>
</svg>
