<?xml version="1.0" encoding="utf-8"?>
<!-- Generator: Adobe Illustrator 24.2.0, SVG Export Plug-In . SVG Version: 6.00 Build 0)  -->
<svg version="1.1" id="Layer_1" xmlns="http://www.w3.org/2000/svg" xmlns:xlink="http://www.w3.org/1999/xlink" x="0px" y="0px"
	 viewBox="0 0 45 45" style="enable-background:new 0 0 45 45;" xml:space="preserve">
<style type="text/css">
	.st0{fill:#FDF5FF;}
	.st1{fill:#C165DD;}
</style>
<g id="Path_1520">
	<path class="st0" d="M22.5,44c-2.9,0-5.7-0.6-8.4-1.7c-2.6-1.1-4.9-2.6-6.8-4.6c-2-2-3.5-4.3-4.6-6.8C1.6,28.2,1,25.4,1,22.5
		s0.6-5.7,1.7-8.4c1.1-2.6,2.6-4.9,4.6-6.8c2-2,4.3-3.5,6.8-4.6C16.8,1.6,19.6,1,22.5,1s5.7,0.6,8.4,1.7c2.6,1.1,4.9,2.6,6.8,4.6
		c2,2,3.5,4.3,4.6,6.8c1.1,2.6,1.7,5.5,1.7,8.4s-0.6,5.7-1.7,8.4c-1.1,2.6-2.6,4.9-4.6,6.8c-2,2-4.3,3.5-6.8,4.6
		C28.2,43.4,25.4,44,22.5,44z"/>
	<path class="st1" d="M22.5,2c-2.8,0-5.5,0.5-8,1.6C12.1,4.6,9.9,6.1,8,8s-3.4,4.1-4.4,6.5C2.5,17,2,19.7,2,22.5s0.5,5.5,1.6,8
		c1,2.4,2.5,4.6,4.4,6.5s4.1,3.4,6.5,4.4c2.5,1.1,5.2,1.6,8,1.6s5.5-0.5,8-1.6c2.4-1,4.6-2.5,6.5-4.4s3.4-4.1,4.4-6.5
		c1.1-2.5,1.6-5.2,1.6-8s-0.5-5.5-1.6-8c-1-2.4-2.5-4.6-4.4-6.5s-4.1-3.4-6.5-4.4C28,2.5,25.3,2,22.5,2 M22.5,0
		C34.9,0,45,10.1,45,22.5S34.9,45,22.5,45S0,34.9,0,22.5S10.1,0,22.5,0z"/>
</g>
<g id="Group_3776" transform="translate(-41.354 9.693)">
	<path id="Path_1687" class="st1" d="M72.3,9.7V5.3H68v1.5h-7.3V5.3h-4.4v4.4h1.5v7.3h-1.5v4.4h4.4v-1.5H68v1.5h4.4v-4.4h-1.5V9.7
		H72.3z M57.8,6.8h1.5v1.5h-1.5V6.8z M59.3,19.8h-1.5v-1.5h1.5V19.8z M68,18.4h-7.3v-1.5h-1.5V9.7h1.5V8.2H68v1.5h1.5v7.3H68
		L68,18.4z M70.9,19.8h-1.5v-1.5h1.5L70.9,19.8z M69.4,8.2V6.8h1.5v1.5H69.4z"/>
	<path id="Path_1688" class="st1" d="M61.2,10.3v1.4h2.5v5.4H65v-5.4h2.5v-1.4H61.2z"/>
</g>
</svg>
