<?xml version="1.0" encoding="utf-8"?>
<!-- Generator: Adobe Illustrator 24.2.0, SVG Export Plug-In . SVG Version: 6.00 Build 0)  -->
<svg version="1.1" id="Layer_1" xmlns="http://www.w3.org/2000/svg" xmlns:xlink="http://www.w3.org/1999/xlink" x="0px" y="0px"
	 viewBox="0 0 16 17" style="enable-background:new 0 0 16 17;" xml:space="preserve">
<style type="text/css">
	.st0{fill:#687793;}
</style>
<path id="Path_1658" class="st0" d="M12.7,8.4L4.3,0L3.4,0.9l2.3,2.3C5.6,3.3,0.5,8.4,0.5,8.4c-0.6,0.6-0.6,1.6,0,2.3c0,0,0,0,0,0
	l5,5c0.6,0.6,1.6,0.6,2.3,0c0,0,0,0,0,0l5-5C13.3,10.1,13.3,9,12.7,8.4C12.7,8.4,12.7,8.4,12.7,8.4L12.7,8.4z M6.4,4.3
	c0.1-0.1,0.2-0.1,0.2-0.2L8,5.5l0,0l3.8,3.8c0,0,0,0,0,0H1.3c0,0,0,0,0,0L6.4,4.3z"/>
<path id="Path_1659" class="st0" d="M15.8,13.9c0,0.7-0.6,1.4-1.4,1.4c-0.7,0-1.4-0.6-1.4-1.4c0,0,0,0,0,0c0.3-1,0.7-2,1.4-2.8
	C15,11.9,15.5,12.9,15.8,13.9z"/>
</svg>
