<?xml version="1.0" encoding="utf-8"?>
<!-- Generator: Adobe Illustrator 24.0.3, SVG Export Plug-In . SVG Version: 6.00 Build 0)  -->
<svg version="1.1" id="Layer_1" xmlns="http://www.w3.org/2000/svg" xmlns:xlink="http://www.w3.org/1999/xlink" x="0px" y="0px"
	 viewBox="0 0 14 14" style="enable-background:new 0 0 14 14;" xml:space="preserve">
<style type="text/css">
	.st0{fill:#A142F4;}
</style>
<path id="Path_461" class="st0" d="M9.33,6.22v1.56H7.77V6.22H9.33z M7.77,4.67v1.56H6.22V4.67H7.77z M7.77,7.78v1.56H6.22V7.78
	L7.77,7.78z M9.33,9.33v1.56H7.77V9.33H9.33z M9.33,3.11v1.56H7.77V3.11L9.33,3.11z M14,12.44V1.56C13.99,0.7,13.3,0,12.44,0H1.55
	C0.7,0,0,0.7,0,1.56v10.89C0,13.3,0.7,14,1.56,14h10.88C13.3,14,14,13.3,14,12.44L14,12.44z M2.33,4.67V3.11h1.56v1.56L2.33,4.67z
	 M2.33,7.78V6.22h1.56v1.56H2.33z M2.33,10.89V9.33h1.56v1.56H2.33z M7.77,12.44v-1.56H6.22v1.56H4.66v-1.56h1.56V9.33H4.66V7.78
	h1.56V6.22H4.66V4.67h1.56V3.11H4.66V1.55h1.56v1.56h1.56V1.55h4.67v10.89L7.77,12.44z"/>
</svg>
