<?xml version="1.0" encoding="utf-8"?>
<!-- Generator: Adobe Illustrator 24.2.0, SVG Export Plug-In . SVG Version: 6.00 Build 0)  -->
<svg version="1.1" id="Layer_1" xmlns="http://www.w3.org/2000/svg" xmlns:xlink="http://www.w3.org/1999/xlink" x="0px" y="0px"
	 viewBox="0 0 45 45" style="enable-background:new 0 0 45 45;" xml:space="preserve">
<style type="text/css">
	.st0{fill:#C165DD;}
	.st1{fill:#FFFFFF;}
</style>
<path id="Path_1520" class="st0" d="M22.5,0C34.9,0,45,10.1,45,22.5S34.9,45,22.5,45S0,34.9,0,22.5S10.1,0,22.5,0z"/>
<path id="Path_1521" class="st1" d="M22.9,24.8c1.6,0,2.9-1.3,2.9-2.9c0,0,0,0,0,0l0-5.9c0-1.6-1.3-2.9-2.9-2.9s-2.9,1.3-2.9,2.9
	l0,0v5.9C19.9,23.5,21.2,24.8,22.9,24.8C22.9,24.8,22.9,24.8,22.9,24.8z M21.7,15.8c0-0.7,0.5-1.2,1.2-1.2s1.2,0.5,1.2,1.2l0,6.1
	c0,0.6-0.5,1.2-1.2,1.2c-0.6,0-1.2-0.5-1.2-1.2l0,0V15.8z M28.1,21.8c0,2.9-2.3,5.2-5.2,5.2c-2.9,0-5.2-2.3-5.2-5.2H16
	c0.1,3.3,2.6,6.1,5.9,6.6v3.2h2v-3.2c3.3-0.5,5.8-3.3,5.9-6.6L28.1,21.8z"/>
</svg>
