<?xml version="1.0" encoding="utf-8"?>
<!-- Generator: Adobe Illustrator 24.0.3, SVG Export Plug-In . SVG Version: 6.00 Build 0)  -->
<svg version="1.1" id="Layer_1" xmlns="http://www.w3.org/2000/svg" xmlns:xlink="http://www.w3.org/1999/xlink" x="0px" y="0px"
	 viewBox="0 0 14 14" style="enable-background:new 0 0 14 14;" xml:space="preserve">
<style type="text/css">
	.st0{fill:#687793;}
</style>
<path id="Path_857" class="st0" d="M7,0C3.1,0,0,3.1,0,7s3.1,7,7,7s7-3.1,7-7S10.9,0,7,0z M6.3,12.6C3.5,12.2,1.4,9.8,1.4,7
	c0-0.4,0-0.8,0.1-1.3l3.4,3.4v0.7c0,0.8,0.6,1.4,1.4,1.4l0,0L6.3,12.6z M11.1,10.8c-0.2-0.6-0.7-1-1.3-1H9.1V7.7
	C9.1,7.3,8.8,7,8.4,7H4.2V5.6h1.4c0.4,0,0.7-0.3,0.7-0.7v0V3.5h1.4c0.8,0,1.4-0.6,1.4-1.4c0,0,0,0,0,0V1.8C12,3,13.3,6.2,12.2,9.1
	C11.9,9.7,11.6,10.3,11.1,10.8z"/>
</svg>
