<?xml version="1.0" encoding="utf-8"?>
<!-- Generator: Adobe Illustrator 24.0.3, SVG Export Plug-In . SVG Version: 6.00 Build 0)  -->
<svg version="1.1" id="Layer_1" xmlns="http://www.w3.org/2000/svg" xmlns:xlink="http://www.w3.org/1999/xlink" x="0px" y="0px"
	 viewBox="0 0 53 53" style="enable-background:new 0 0 53 53;" xml:space="preserve">
<style type="text/css">
	.st0{fill:#DFE7E9;}
	.st1{fill:#99A2B3;}
</style>
<g id="Group_2042" transform="translate(-1666 -19)">
	<path id="Path_906" class="st0" d="M1692.5,19c14.6,0,26.5,11.9,26.5,26.5S1707.1,72,1692.5,72S1666,60.1,1666,45.5
		S1677.9,19,1692.5,19z"/>
	<path id="Path_907" class="st1" d="M1702.6,46.4c0.1-0.4,0.1-0.9,0.1-1.3c0-0.4,0-0.9-0.1-1.3l2.8-2.2c0.2-0.2,0.3-0.6,0.2-0.8
		l-2.6-4.5c-0.2-0.3-0.5-0.4-0.8-0.3l-3.3,1.3c-0.7-0.5-1.4-1-2.2-1.3l-0.5-3.5c0-0.3-0.3-0.6-0.7-0.6h-5.3c-0.3,0-0.6,0.2-0.6,0.6
		L1689,36c-0.8,0.3-1.5,0.8-2.2,1.3l-3.3-1.3c-0.3-0.1-0.7,0-0.8,0.3l-2.6,4.6c-0.2,0.3-0.1,0.6,0.2,0.8l2.8,2.2
		c-0.2,0.9-0.2,1.7,0,2.6l-2.8,2.2c-0.2,0.2-0.3,0.6-0.2,0.8l2.6,4.5c0.2,0.3,0.5,0.4,0.8,0.3l3.3-1.3c0.7,0.5,1.4,1,2.2,1.3
		l0.5,3.5c0.1,0.3,0.3,0.6,0.7,0.6h5.3c0.3,0,0.6-0.2,0.6-0.6l0.5-3.5c0.8-0.3,1.5-0.8,2.2-1.3l3.3,1.3c0.3,0.1,0.7,0,0.8-0.3
		l2.6-4.6c0.2-0.3,0.1-0.6-0.2-0.8L1702.6,46.4z M1692.8,50.1c-2.7,0-4.9-2.2-4.9-4.9s2.2-4.9,4.9-4.9c2.7,0,4.9,2.2,4.9,4.9
		c0,0,0,0,0,0C1697.7,47.9,1695.5,50.1,1692.8,50.1z"/>
</g>
</svg>
