<?xml version="1.0" encoding="utf-8"?>
<!-- Generator: Adobe Illustrator 24.0.3, SVG Export Plug-In . SVG Version: 6.00 Build 0)  -->
<svg version="1.1" id="Layer_1" xmlns="http://www.w3.org/2000/svg" xmlns:xlink="http://www.w3.org/1999/xlink" x="0px" y="0px"
	 viewBox="0 0 14 14" style="enable-background:new 0 0 14 14;" xml:space="preserve">
<style type="text/css">
	.st0{fill:#80868B;}
</style>
<path id="Path_606" class="st0" d="M4.67,6.22v1.56h1.56V6.22H4.67z M6.22,4.67v1.56h1.56V4.67H6.22z M6.22,7.78v1.56h1.56V7.78
	H6.22z M4.67,9.33v1.56h1.56V9.33H4.67z M4.67,3.11v1.56h1.56V3.11H4.67z M0,12.44V1.56C0,0.7,0.7,0,1.56,0h10.89
	C13.3,0,14,0.7,14,1.56v10.89C14,13.3,13.3,14,12.44,14H1.56C0.7,14,0,13.3,0,12.44z M11.67,4.67V3.11h-1.56v1.56H11.67z
	 M11.67,7.78V6.22h-1.56v1.56H11.67z M11.67,10.89V9.33h-1.56v1.56H11.67z M6.22,12.44v-1.56h1.55v1.56h1.56v-1.56H7.78V9.33h1.56
	V7.78H7.78V6.22h1.56V4.67H7.78V3.11h1.56V1.56H7.78v1.56H6.22V1.56H1.56v10.89L6.22,12.44z"/>
</svg>
