<?xml version="1.0" encoding="utf-8"?>
<!-- Generator: Adobe Illustrator 24.0.3, SVG Export Plug-In . SVG Version: 6.00 Build 0)  -->
<svg version="1.1" id="Layer_1" xmlns="http://www.w3.org/2000/svg" xmlns:xlink="http://www.w3.org/1999/xlink" x="0px" y="0px"
	 viewBox="0 0 32 32" style="enable-background:new 0 0 32 32;" xml:space="preserve">
<style type="text/css">
	.st0{display:none;}
	.st1{display:inline;fill:#DFE7E9;}
	.st2{display:inline;}
	.st3{fill:#99A2B3;}
	.st4{display:inline;fill:#55A8FD;}
	.st5{display:inline;fill:#FFFFFF;}
	.st6{fill:#836EFF;}
	.st7{fill:#FFFFFF;}
</style>
<g id="Group_1838" transform="translate(-747 -937)" class="st0">
	<path id="Path_273" class="st1" d="M762.9,937c8.8,0,15.9,7.1,15.9,15.9s-7.1,15.9-15.9,15.9s-15.9-7.1-15.9-15.9
		S754.1,937,762.9,937L762.9,937z"/>
	<g id="Group_1837" transform="translate(773.862 895.328)" class="st2">
		<path id="Path_574" class="st3" d="M-7.8,53.7V52c0-1.5,1.2-2.7,2.7-2.7s2.7,1.2,2.7,2.7h1.6c0-2.4-1.9-4.3-4.3-4.3
			s-4.3,1.9-4.3,4.3v1.7H-7.8z"/>
		<path id="Path_575" class="st3" d="M-12,61.4c0.9,0,1.7-0.8,1.7-1.7c0-1-0.8-1.7-1.7-1.7c-0.9,0-1.7,0.8-1.7,1.7
			C-13.7,60.6-13,61.4-12,61.4z M-17.1,53.7c-1,0-1.7,0.8-1.7,1.7v8.6c0,0.9,0.8,1.7,1.7,1.7h10.3c0.9,0,1.7-0.8,1.7-1.7v-8.6
			c0-1-0.8-1.7-1.7-1.7H-17.1z M-6.9,64h-10.3v-8.6h10.3C-6.9,55.4-6.9,64-6.9,64z"/>
	</g>
</g>
<g id="Group_1811" transform="translate(-765 -1132)" class="st0">
	<path id="Path_535" class="st4" d="M780.9,1132c8.8,0,15.9,7.1,15.9,15.9s-7.1,15.9-15.9,15.9s-15.9-7.1-15.9-15.9
		S772.1,1132,780.9,1132L780.9,1132z"/>
	<path id="Path_533" class="st5" d="M785.8,1143.9H785v-1.7c0-2.3-1.9-4.2-4.2-4.2c-2.3,0-4.2,1.9-4.2,4.2v1.7h-0.8
		c-0.9,0-1.7,0.8-1.7,1.7v8.4c0,0.9,0.8,1.7,1.7,1.7h10.1c0.9,0,1.7-0.8,1.7-1.7v-8.4C787.5,1144.7,786.7,1143.9,785.8,1143.9z
		 M780.8,1151.5c-0.9,0-1.7-0.8-1.7-1.7c0-0.9,0.8-1.7,1.7-1.7s1.7,0.8,1.7,1.7C782.4,1150.7,781.7,1151.5,780.8,1151.5z
		 M783.4,1143.9h-5.2v-1.7c0-1.4,1.2-2.6,2.7-2.6c1.4,0,2.5,1.2,2.6,2.6V1143.9z"/>
</g>
<g id="Group_1811_1_" transform="translate(-765 -1132)">
	<path id="Path_535_1_" class="st6" d="M780.9,1132c8.8,0,15.9,7.1,15.9,15.9s-7.1,15.9-15.9,15.9s-15.9-7.1-15.9-15.9
		S772.1,1132,780.9,1132C780.9,1132,780.9,1132,780.9,1132z"/>
	<path id="Path_533_1_" class="st7" d="M785.8,1143.9H785v-1.7c0-2.3-1.9-4.2-4.2-4.2c-2.3,0-4.2,1.9-4.2,4.2v1.7h-0.8
		c-0.9,0-1.7,0.8-1.7,1.7v8.4c0,0.9,0.8,1.7,1.7,1.7h10.1c0.9,0,1.7-0.8,1.7-1.7v-8.4C787.5,1144.7,786.7,1143.9,785.8,1143.9z
		 M780.7,1151.5c-0.9,0-1.7-0.8-1.7-1.7c0-0.9,0.8-1.7,1.7-1.7s1.7,0.8,1.7,1.7C782.4,1150.7,781.7,1151.5,780.7,1151.5z
		 M783.4,1143.9h-5.2v-1.7c0-1.4,1.2-2.6,2.7-2.6c1.4,0,2.5,1.2,2.6,2.6V1143.9z"/>
</g>
</svg>
