<?xml version="1.0" encoding="utf-8"?>
<!-- Generator: Adobe Illustrator 24.0.3, SVG Export Plug-In . SVG Version: 6.00 Build 0)  -->
<svg version="1.1" id="Layer_1" xmlns="http://www.w3.org/2000/svg" xmlns:xlink="http://www.w3.org/1999/xlink" x="0px" y="0px"
	 viewBox="0 0 14 14" style="enable-background:new 0 0 14 14;" xml:space="preserve">
<style type="text/css">
	.st0{fill:#DADCE0;}
</style>
<path id="Path_483" class="st0" d="M6.3,11.2h1.4V9.8H6.3V11.2z M7,0C3.13,0,0,3.13,0,7s3.13,7,7,7s7-3.13,7-7C14,3.13,10.87,0,7,0
	C7,0,7,0,7,0z M7,12.6c-3.09,0-5.6-2.51-5.6-5.6c0-3.09,2.51-5.6,5.6-5.6c3.09,0,5.6,2.51,5.6,5.6C12.6,10.09,10.09,12.6,7,12.6z
	 M7,2.8c-1.55,0-2.8,1.25-2.8,2.8l0,0h1.4c0-0.77,0.63-1.4,1.4-1.4h0c0.77,0,1.4,0.63,1.4,1.4l0,0c0,1.4-2.1,1.22-2.1,3.5h1.4
	c0-1.57,2.1-1.75,2.1-3.5C9.8,4.05,8.55,2.8,7,2.8L7,2.8z"/>
</svg>
