<?xml version="1.0" encoding="utf-8"?>
<!-- Generator: Adobe Illustrator 24.0.3, SVG Export Plug-In . SVG Version: 6.00 Build 0)  -->
<svg version="1.1" id="Layer_1" xmlns="http://www.w3.org/2000/svg" xmlns:xlink="http://www.w3.org/1999/xlink" x="0px" y="0px"
	 viewBox="0 0 14 14" style="enable-background:new 0 0 14 14;" xml:space="preserve">
<style type="text/css">
	.st0{fill:#357EFA;}
</style>
<path id="Path_622" class="st0" d="M7,0C3.13,0,0,3.13,0,7c0,3.87,3.13,7,7,7s7-3.13,7-7S10.87,0,7,0C7,0,7,0,7,0z M7.7,11.9H6.3
	v-1.4h1.4L7.7,11.9z M9.15,6.47L8.52,7.12C7.95,7.61,7.64,8.35,7.7,9.1H6.3V8.75c0-0.74,0.3-1.45,0.82-1.98l0.87-0.88
	C8.25,5.63,8.4,5.27,8.4,4.9c0-0.77-0.63-1.4-1.4-1.4S5.6,4.12,5.6,4.9c0,0,0,0,0,0H4.2c0-1.55,1.25-2.8,2.8-2.8
	c1.55,0,2.8,1.25,2.8,2.8C9.8,5.49,9.57,6.06,9.15,6.47z"/>
</svg>
