<?xml version="1.0" encoding="utf-8"?>
<!-- Generator: Adobe Illustrator 24.0.3, SVG Export Plug-In . SVG Version: 6.00 Build 0)  -->
<svg version="1.1" id="Layer_1" xmlns="http://www.w3.org/2000/svg" xmlns:xlink="http://www.w3.org/1999/xlink" x="0px" y="0px"
viewBox="0 0 14 14" style="enable-background:new 0 0 14 14;" xml:space="preserve">
<style type="text/css">
	.st0{display:none;fill:#357EFA;}
	.st1{fill:#C165DD;}
</style>
<path id="Path_622" class="st0" d="M7,0C3.1,0,0,3.1,0,7c0,3.9,3.1,7,7,7s7-3.1,7-7S10.9,0,7,0L7,0z M7.7,11.9H6.3v-1.4h1.4
	L7.7,11.9z M9.1,6.5L8.5,7.1c-0.6,0.5-0.9,1.2-0.8,2H6.3V8.8c0-0.7,0.3-1.5,0.8-2L8,5.9c0.3-0.3,0.4-0.6,0.4-1
	c0-0.8-0.6-1.4-1.4-1.4S5.6,4.1,5.6,4.9c0,0,0,0,0,0H4.2c0-1.5,1.3-2.8,2.8-2.8c1.5,0,2.8,1.3,2.8,2.8C9.8,5.5,9.6,6.1,9.1,6.5z"/>
<path id="Path_622_1_" class="st1" d="M7,0C3.1,0,0,3.1,0,7c0,3.9,3.1,7,7,7s7-3.1,7-7S10.9,0,7,0C7,0,7,0,7,0z M7.7,11.9H6.3v-1.4
	h1.4L7.7,11.9z M9.1,6.5L8.5,7.1c-0.6,0.5-0.9,1.2-0.8,2H6.3V8.8c0-0.7,0.3-1.5,0.8-2L8,5.9c0.3-0.3,0.4-0.6,0.4-1
	c0-0.8-0.6-1.4-1.4-1.4S5.6,4.1,5.6,4.9c0,0,0,0,0,0H4.2c0-1.5,1.3-2.8,2.8-2.8c1.5,0,2.8,1.3,2.8,2.8C9.8,5.5,9.6,6.1,9.1,6.5z"/>
</svg>
