<?xml version="1.0" encoding="utf-8"?>
<!-- Generator: Adobe Illustrator 24.0.3, SVG Export Plug-In . SVG Version: 6.00 Build 0)  -->
<svg version="1.1" id="Layer_1" xmlns="http://www.w3.org/2000/svg" xmlns:xlink="http://www.w3.org/1999/xlink" x="0px" y="0px"
	 viewBox="0 0 35 35" style="enable-background:new 0 0 35 35;" xml:space="preserve">
<style type="text/css">
	.st0{fill:#FFFFFF;}
</style>
<g id="Group_1670" transform="translate(1.176 1.248)">
	<g id="Group_298" transform="translate(11.435)">
		<path class="st0" d="M9.79,33.56c-2.5,0-4.53-2.03-4.53-4.53c0-2.5,2.03-4.53,4.53-4.53c2.5,0,4.53,2.03,4.53,4.53
			C14.32,31.53,12.29,33.56,9.79,33.56z M9.79,26.5c-1.4,0-2.53,1.13-2.53,2.53c0,1.4,1.13,2.53,2.53,2.53
			c1.39,0,2.53-1.13,2.53-2.53C12.32,27.64,11.19,26.5,9.79,26.5z"/>
		<path class="st0" d="M8.11,27.01c-0.43,0-0.83-0.28-0.96-0.71L-0.6,0.84c-0.16-0.53,0.14-1.09,0.67-1.25
			c0.53-0.16,1.09,0.14,1.25,0.67l7.75,25.46c0.16,0.53-0.14,1.09-0.67,1.25C8.3,27,8.2,27.01,8.11,27.01z"/>
	</g>
	<g id="Group_299" transform="translate(0 13.661)">
		<path class="st0" d="M28.84,10.45c-2.5,0-4.53-2.03-4.53-4.53c0-2.5,2.03-4.53,4.53-4.53s4.53,2.03,4.53,4.53
			C33.37,8.42,31.33,10.45,28.84,10.45z M28.84,3.39c-1.4,0-2.53,1.13-2.53,2.53c0,1.39,1.13,2.53,2.53,2.53s2.53-1.13,2.53-2.53
			C31.37,4.53,30.23,3.39,28.84,3.39z"/>
		<path class="st0" d="M23.93,6.24c-0.06,0-0.13-0.01-0.2-0.02L0.16,1.53C-0.38,1.42-0.73,0.9-0.63,0.35
			c0.11-0.54,0.63-0.89,1.18-0.79l23.57,4.69c0.54,0.11,0.89,0.63,0.79,1.18C24.81,5.91,24.4,6.24,23.93,6.24z"/>
	</g>
</g>
</svg>
