<?xml version="1.0" encoding="utf-8"?>
<!-- Generator: Adobe Illustrator 24.0.3, SVG Export Plug-In . SVG Version: 6.00 Build 0)  -->
<svg version="1.1" id="Layer_1" xmlns="http://www.w3.org/2000/svg" xmlns:xlink="http://www.w3.org/1999/xlink" x="0px" y="0px"
	 viewBox="0 0 19 19" style="enable-background:new 0 0 19 19;" xml:space="preserve">
<style type="text/css">
	.st0{fill:#FFFFFF;}
</style>
<g id="Group_1945" transform="translate(-44.3 -44.3)">
	<circle id="Ellipse_271" class="st0" cx="57" cy="51.8" r="1"/>
	<circle id="Ellipse_272" class="st0" cx="50.5" cy="51.8" r="1"/>
	<circle id="Ellipse_273" class="st0" cx="57" cy="51.8" r="1"/>
	<circle id="Ellipse_274" class="st0" cx="50.5" cy="51.8" r="1"/>
	<path id="Path_787" class="st0" d="M53.8,44.3c-5.2,0-9.5,4.3-9.5,9.5s4.3,9.5,9.5,9.5c5.2,0,9.5-4.3,9.5-9.5
		C63.3,48.6,59,44.3,53.8,44.3C53.8,44.3,53.8,44.3,53.8,44.3z M53.8,61.4c-4.2,0-7.6-3.4-7.6-7.6s3.4-7.6,7.6-7.6s7.6,3.4,7.6,7.6
		c0,0,0,0,0,0C61.4,58,58,61.4,53.8,61.4C53.8,61.4,53.8,61.4,53.8,61.4L53.8,61.4z M53.8,59c2.2,0,4.1-1.3,4.9-3.3h-1.6
		c-1,1.8-3.3,2.4-5.2,1.4c-0.6-0.3-1.1-0.8-1.4-1.4h-1.6C49.7,57.7,51.6,59,53.8,59L53.8,59z"/>
</g>
</svg>
