<?xml version="1.0" encoding="utf-8"?>
<!-- Generator: Adobe Illustrator 24.0.3, SVG Export Plug-In . SVG Version: 6.00 Build 0)  -->
<svg version="1.1" id="Layer_1" xmlns="http://www.w3.org/2000/svg" xmlns:xlink="http://www.w3.org/1999/xlink" x="0px" y="0px"
	 viewBox="0 0 32 32" style="enable-background:new 0 0 32 32;" xml:space="preserve">
<style type="text/css">
	.st0{fill:#DFE7E9;}
	.st1{fill:#99A2B3;}
</style>
<g id="Group_1838" transform="translate(-747 -937)">
	<path id="Path_273" class="st0" d="M762.92,937c8.79,0,15.92,7.13,15.92,15.92s-7.13,15.92-15.92,15.92S747,961.71,747,952.92
		S754.13,937,762.92,937C762.92,937,762.92,937,762.92,937z"/>
	<g id="Group_1837" transform="translate(773.862 895.328)">
		<path id="Path_574" class="st1" d="M-7.81,53.67v-1.71c0-1.47,1.19-2.66,2.66-2.66c1.47,0,2.66,1.19,2.66,2.66h1.63
			c0-2.37-1.92-4.29-4.29-4.29c-2.37,0-4.29,1.92-4.29,4.29v1.71H-7.81z"/>
		<path id="Path_575" class="st1" d="M-12.01,61.38c0.95,0,1.71-0.77,1.71-1.71c0-0.95-0.77-1.71-1.71-1.71
			c-0.95,0-1.71,0.77-1.71,1.71C-13.72,60.62-12.95,61.38-12.01,61.38z M-17.15,53.67c-0.95,0-1.71,0.77-1.71,1.71v8.57
			c0,0.95,0.77,1.71,1.71,1.71h10.28c0.95,0,1.71-0.77,1.71-1.71v-8.57c0-0.95-0.77-1.71-1.71-1.71H-17.15z M-6.86,63.96h-10.28
			v-8.57h10.28V63.96z"/>
	</g>
</g>
</svg>
