<?xml version="1.0" encoding="utf-8"?>
<!-- Generator: Adobe Illustrator 24.0.3, SVG Export Plug-In . SVG Version: 6.00 Build 0)  -->
<svg version="1.1" id="Layer_1" xmlns="http://www.w3.org/2000/svg" xmlns:xlink="http://www.w3.org/1999/xlink" x="0px" y="0px"
viewBox="0 0 17.2 97" style="enable-background:new 0 0 17.2 97;" xml:space="preserve">
<style type="text/css">
	.st0{display:none;fill:none;stroke:#99A2B3;stroke-dasharray:3,3;}
	.st1{fill:#99A2B3;}
</style>
<path id="Path_468" class="st0" d="M0.5,41.4V0.5h16.1"/>
<path id="Path_467" class="st0" d="M0.5,81.5v40.9h16.1"/>
<g>
	<path class="st1" d="M1,26.4H0v-3h1V26.4z M1,18.4H0v-3h1V18.4z M1,10.4H0v-3h1V10.4z M1,2.4H0V0h1.6v1H1V2.4z M16.6,1h-2V0h2V1z
		 M9.6,1h-3V0h3V1z"/>
	<path class="st1" d="M16.6,96.9h-2v-1h2V96.9z M9.6,96.9h-3v-1h3V96.9z M1.6,96.9H0v-2.4h1v1.4h0.6V96.9z M1,89.5H0v-3h1V89.5z
		 M1,81.5H0v-3h1V81.5z M1,73.5H0v-3h1V73.5z"/>
</g>
</svg>
