<?xml version="1.0" encoding="utf-8"?>
<!-- Generator: Adobe Illustrator 24.2.0, SVG Export Plug-In . SVG Version: 6.00 Build 0)  -->
<svg version="1.1" id="Layer_1" xmlns="http://www.w3.org/2000/svg" xmlns:xlink="http://www.w3.org/1999/xlink" x="0px" y="0px"
	 viewBox="0 0 14400 14400" style="enable-background:new 0 0 14400 14400;" xml:space="preserve">
<style type="text/css">
	.st0{fill:#687793;}
</style>
<path id="Path_1658" class="st0" d="M7198.7,7196.3l-4.8-4.8l-0.5,0.5l1.3,1.3c-0.1,0.1-3,3-3,3c-0.3,0.3-0.3,0.9,0,1.3l0,0l2.8,2.8
	c0.3,0.3,0.9,0.3,1.3,0l0,0l2.8-2.8C7199,7197.2,7199,7196.6,7198.7,7196.3L7198.7,7196.3L7198.7,7196.3z M7195.1,7193.9
	c0.1-0.1,0.1-0.1,0.1-0.1l0.8,0.8l0,0l2.2,2.2l0,0h-6l0,0L7195.1,7193.9z"/>
<path id="Path_1659" class="st0" d="M7200.2,7199.2c0,0.4-0.3,0.8-0.8,0.8c-0.4,0-0.8-0.3-0.8-0.8l0,0c0.2-0.6,0.4-1.1,0.8-1.6
	C7199.8,7198.1,7200.1,7198.6,7200.2,7199.2z"/>
</svg>
