<?xml version="1.0" encoding="utf-8"?>
<!-- Generator: Adobe Illustrator 24.0.3, SVG Export Plug-In . SVG Version: 6.00 Build 0)  -->
<svg version="1.1" id="Layer_1" xmlns="http://www.w3.org/2000/svg" xmlns:xlink="http://www.w3.org/1999/xlink" x="0px" y="0px"
	 viewBox="0 0 32 32" style="enable-background:new 0 0 32 32;" xml:space="preserve">
<style type="text/css">
	.st0{fill:#DFE7E9;}
	.st1{fill:#99A2B3;}
	.st2{fill:#55A8FD;}
	.st3{fill:#FFFFFF;}
</style>
<g id="Group_1838" transform="translate(-747 -937)">
	<path id="Path_273" class="st0" d="M762.92,937c8.79,0,15.92,7.13,15.92,15.92s-7.13,15.92-15.92,15.92S747,961.71,747,952.92
		S754.13,937,762.92,937C762.92,937,762.92,937,762.92,937z"/>
	<g id="Group_1837" transform="translate(773.862 895.328)">
		<path id="Path_574" class="st1" d="M-7.81,53.67v-1.71c0-1.47,1.19-2.66,2.66-2.66c1.47,0,2.66,1.19,2.66,2.66h1.63
			c0-2.37-1.92-4.29-4.29-4.29c-2.37,0-4.29,1.92-4.29,4.29v1.71H-7.81z"/>
		<path id="Path_575" class="st1" d="M-12.01,61.38c0.95,0,1.71-0.77,1.71-1.71c0-0.95-0.77-1.71-1.71-1.71
			c-0.95,0-1.71,0.77-1.71,1.71C-13.72,60.62-12.95,61.38-12.01,61.38z M-17.15,53.67c-0.95,0-1.71,0.77-1.71,1.71v8.57
			c0,0.95,0.77,1.71,1.71,1.71h10.28c0.95,0,1.71-0.77,1.71-1.71v-8.57c0-0.95-0.77-1.71-1.71-1.71H-17.15z M-6.86,63.96h-10.28
			v-8.57h10.28V63.96z"/>
	</g>
</g>
<g id="Group_1811" transform="translate(-765 -1132)">
	<path id="Path_535" class="st2" d="M780.92,1132c8.79,0,15.92,7.13,15.92,15.92s-7.13,15.92-15.92,15.92s-15.92-7.13-15.92-15.92
		S772.13,1132,780.92,1132C780.92,1132,780.92,1132,780.92,1132z"/>
	<path id="Path_533" class="st3" d="M785.81,1143.9h-0.84v-1.68c0-2.33-1.89-4.22-4.22-4.21c-2.33,0-4.21,1.89-4.21,4.21v1.68h-0.84
		c-0.93,0-1.69,0.76-1.69,1.69v8.43c0,0.93,0.76,1.68,1.69,1.69h10.12c0.93,0,1.69-0.76,1.69-1.69v-8.43
		C787.5,1144.66,786.74,1143.9,785.81,1143.9z M780.75,1151.49c-0.93,0-1.69-0.76-1.69-1.69c0-0.93,0.76-1.69,1.69-1.69
		s1.69,0.76,1.69,1.69C782.43,1150.74,781.68,1151.49,780.75,1151.49z M783.36,1143.9h-5.23v-1.68c0.03-1.44,1.22-2.59,2.67-2.56
		c1.4,0.03,2.54,1.16,2.56,2.56V1143.9z"/>
</g>
</svg>
