<?xml version="1.0" encoding="utf-8"?>
<!-- Generator: Adobe Illustrator 24.0.3, SVG Export Plug-In . SVG Version: 6.00 Build 0)  -->
<svg version="1.1" id="Layer_1" xmlns="http://www.w3.org/2000/svg" xmlns:xlink="http://www.w3.org/1999/xlink" x="0px" y="0px"
	 viewBox="0 0 14 14" style="enable-background:new 0 0 14 14;" xml:space="preserve">
<path id="Path_483" class="st0" d="M6.31,11.14h1.38V9.76H6.31V11.14z M7,0.1C3.19,0.1,0.1,3.19,0.1,7s3.09,6.9,6.9,6.9
	s6.9-3.09,6.9-6.9C13.9,3.19,10.81,0.1,7,0.1C7,0.1,7,0.1,7,0.1z M7,12.52c-3.05,0-5.52-2.47-5.52-5.52c0-3.05,2.47-5.52,5.52-5.52
	c3.05,0,5.52,2.47,5.52,5.52C12.52,10.05,10.05,12.52,7,12.52z M7,2.86c-1.52,0-2.76,1.24-2.76,2.76l0,0h1.38
	c0-0.76,0.62-1.38,1.38-1.38h0c0.76,0,1.38,0.62,1.38,1.38l0,0c0,1.38-2.07,1.21-2.07,3.45h1.38c0-1.55,2.07-1.73,2.07-3.45
	C9.76,4.1,8.52,2.86,7,2.86C7,2.86,7,2.86,7,2.86z"/>
</svg>
